<svg xmlns="http://www.w3.org/2000/svg" viewBox="0 0 64 64">
  <defs>
    <style>
      .cls-1{fill:#fff;}
      .cls-2{fill:#dee0e2;}
      .cls-3{fill:none;stroke:#4d535b;stroke-miterlimit:10;stroke-width:2px;}
      .cls-4{fill:#a1f4c0;}
    </style>
  </defs>
  <g style="isolation:isolate">
    <g id="white">
      <rect class="cls-1" x="8" y="14" width="48" height="36" rx="2"/>
      <rect class="cls-2" x="8" y="14" width="48" height="8"/>
    </g>
    <g id="stroke">
      <rect class="cls-3" x="8" y="14" width="48" height="36" rx="2"/>
      <rect class="cls-3" x="8" y="14" width="48" height="8"/>
      <circle class="cls-3" cx="14" cy="18" r="1"/>
      <circle class="cls-3" cx="18" cy="18" r="1"/>
      <circle class="cls-3" cx="22" cy="18" r="1"/>
      <polyline class="cls-3" points="24 30 28 34 24 38"/>
      <polyline class="cls-3" points="40 30 36 34 40 38"/>
      <line class="cls-3" x1="31" y1="28" x2="33" y2="40"/>
    </g>
    <g id="flah">
      <polygon class="cls-4" points="24 30 28 34 24 38"/>
      <polygon class="cls-4" points="40 30 36 34 40 38"/>
      <circle class="cls-4" cx="50" cy="45" r="5"/>
      <line class="cls-3" x1="47" y1="45" x2="53" y2="45"/>
      <line class="cls-3" x1="50" y1="42" x2="50" y2="48"/>
    </g>
  </g>
</svg>
