<svg xmlns="http://www.w3.org/2000/svg" viewBox="0 0 64 64">
  <defs>
    <style>
      .cls-1{fill:#fff;}
      .cls-2{fill:#dee0e2;}
      .cls-3{fill:none;stroke:#4d535b;stroke-miterlimit:10;stroke-width:2px;}
      .cls-4{fill:#a1f4c0;}
    </style>
  </defs>
  <g style="isolation:isolate">
    <g id="white">
      <polygon class="cls-1" points="32 10 14 20 14 40 32 50 50 40 50 20 32 10"/>
      <line class="cls-2" x1="32" y1="10" x2="32" y2="50"/>
      <line class="cls-2" x1="14" y1="20" x2="32" y2="30"/>
      <line class="cls-2" x1="50" y1="20" x2="32" y2="30"/>
      <line class="cls-2" x1="14" y1="40" x2="32" y2="30"/>
      <line class="cls-2" x1="50" y1="40" x2="32" y2="30"/>
    </g>
    <g id="stroke">
      <polygon class="cls-3" points="32 10 14 20 14 40 32 50 50 40 50 20 32 10"/>
      <line class="cls-3" x1="32" y1="10" x2="32" y2="50"/>
      <line class="cls-3" x1="14" y1="20" x2="32" y2="30"/>
      <line class="cls-3" x1="50" y1="20" x2="32" y2="30"/>
      <line class="cls-3" x1="14" y1="40" x2="32" y2="30"/>
      <line class="cls-3" x1="50" y1="40" x2="32" y2="30"/>
    </g>
    <g id="flah">
      <polygon class="cls-4" points="32 10 14 20 32 30 50 20 32 10"/>
      <polygon class="cls-4" points="32 30 14 40 32 50 50 40 32 30"/>
    </g>
  </g>
</svg>
