<svg xmlns="http://www.w3.org/2000/svg" viewBox="0 0 64 64">
  <defs>
    <style>
      .cls-1{fill:#fff;}
      .cls-2{fill:#dee0e2;}
      .cls-3{fill:none;stroke:#4d535b;stroke-miterlimit:10;stroke-width:2px;}
      .cls-4{fill:#a1f4c0;}
    </style>
  </defs>
  <g style="isolation:isolate">
    <g id="white">
      <path class="cls-1" d="M44 24a8 8 0 00-15-4 6 6 0 00-9 5 7 7 0 001 14h23a6 6 0 000-12z"/>
    </g>
    <g id="stroke">
      <path class="cls-3" d="M44 24a8 8 0 00-15-4 6 6 0 00-9 5 7 7 0 001 14h23a6 6 0 000-12z"/>
      <circle class="cls-3" cx="32" cy="36" r="2"/>
      <line class="cls-3" x1="32" y1="38" x2="32" y2="44"/>
      <circle class="cls-3" cx="42" cy="42" r="2"/>
      <line class="cls-3" x1="42" y1="44" x2="42" y2="50"/>
      <circle class="cls-3" cx="22" cy="42" r="2"/>
      <line class="cls-3" x1="22" y1="44" x2="22" y2="50"/>
    </g>
    <g id="flah">
      <circle class="cls-4" cx="32" cy="36" r="2"/>
      <circle class="cls-4" cx="42" cy="42" r="2"/>
      <circle class="cls-4" cx="22" cy="42" r="2"/>
    </g>
  </g>
</svg>
